<?xml version="1.0"?>
<svg xmlns="http://www.w3.org/2000/svg" xmlns:lc="https://librecad.org" xmlns:xlink="http://www.w3.org/1999/xlink" width="285.75mm" height="93mm" viewBox="0 0 285.75 93">
    <g lc:layername="0" lc:is_locked="false" lc:is_construction="false" fill="none" stroke="black" stroke-width="1">
        <line x1="3.025" y1="10.525" x2="16.025" y2="10.525"/>
        <line x1="3.025" y1="24.525" x2="16.025" y2="24.525"/>
        <line x1="2.525" y1="11.025" x2="2.525" y2="24.025"/>
        <line x1="16.525" y1="11.025" x2="16.525" y2="24.025"/>
        <path d="M3.025,10.525 A0.5,0.5 0 0,0 2.525,11.025 "/>
        <path d="M16.525,11.025 A0.5,0.5 0 0,0 16.025,10.525 "/>
        <path d="M2.525,24.025 A0.5,0.5 0 0,0 3.025,24.525 "/>
        <path d="M16.025,24.525 A0.5,0.5 0 0,0 16.525,24.025 "/>
        <line x1="26.8375" y1="10.525" x2="39.8375" y2="10.525"/>
        <line x1="26.8375" y1="24.525" x2="39.8375" y2="24.525"/>
        <line x1="26.3375" y1="11.025" x2="26.3375" y2="24.025"/>
        <line x1="40.3375" y1="11.025" x2="40.3375" y2="24.025"/>
        <path d="M26.8375,10.525 A0.5,0.5 0 0,0 26.3375,11.025 "/>
        <path d="M40.3375,11.025 A0.5,0.5 0 0,0 39.8375,10.525 "/>
        <path d="M26.3375,24.025 A0.5,0.5 0 0,0 26.8375,24.525 "/>
        <path d="M39.8375,24.525 A0.5,0.5 0 0,0 40.3375,24.025 "/>
        <line x1="45.8875" y1="10.525" x2="58.8875" y2="10.525"/>
        <line x1="45.8875" y1="24.525" x2="58.8875" y2="24.525"/>
        <line x1="45.3875" y1="11.025" x2="45.3875" y2="24.025"/>
        <line x1="59.3875" y1="11.025" x2="59.3875" y2="24.025"/>
        <path d="M45.8875,10.525 A0.5,0.5 0 0,0 45.3875,11.025 "/>
        <path d="M59.3875,11.025 A0.5,0.5 0 0,0 58.8875,10.525 "/>
        <path d="M45.3875,24.025 A0.5,0.5 0 0,0 45.8875,24.525 "/>
        <path d="M58.8875,24.525 A0.5,0.5 0 0,0 59.3875,24.025 "/>
        <line x1="64.9375" y1="10.525" x2="77.9375" y2="10.525"/>
        <line x1="64.9375" y1="24.525" x2="77.9375" y2="24.525"/>
        <line x1="64.4375" y1="11.025" x2="64.4375" y2="24.025"/>
        <line x1="78.4375" y1="11.025" x2="78.4375" y2="24.025"/>
        <path d="M64.9375,10.525 A0.5,0.5 0 0,0 64.4375,11.025 "/>
        <path d="M78.4375,11.025 A0.5,0.5 0 0,0 77.9375,10.525 "/>
        <path d="M64.4375,24.025 A0.5,0.5 0 0,0 64.9375,24.525 "/>
        <path d="M77.9375,24.525 A0.5,0.5 0 0,0 78.4375,24.025 "/>
        <line x1="83.9875" y1="10.525" x2="96.9875" y2="10.525"/>
        <line x1="83.9875" y1="24.525" x2="96.9875" y2="24.525"/>
        <line x1="83.4875" y1="11.025" x2="83.4875" y2="24.025"/>
        <line x1="97.4875" y1="11.025" x2="97.4875" y2="24.025"/>
        <path d="M83.9875,10.525 A0.5,0.5 0 0,0 83.4875,11.025 "/>
        <path d="M97.4875,11.025 A0.5,0.5 0 0,0 96.9875,10.525 "/>
        <path d="M83.4875,24.025 A0.5,0.5 0 0,0 83.9875,24.525 "/>
        <path d="M96.9875,24.525 A0.5,0.5 0 0,0 97.4875,24.025 "/>
        <line x1="103.0375" y1="10.525" x2="116.0375" y2="10.525"/>
        <line x1="103.0375" y1="24.525" x2="116.0375" y2="24.525"/>
        <line x1="102.5375" y1="11.025" x2="102.5375" y2="24.025"/>
        <line x1="116.5375" y1="11.025" x2="116.5375" y2="24.025"/>
        <path d="M103.0375,10.525 A0.5,0.5 0 0,0 102.5375,11.025 "/>
        <path d="M116.5375,11.025 A0.5,0.5 0 0,0 116.0375,10.525 "/>
        <path d="M102.5375,24.025 A0.5,0.5 0 0,0 103.0375,24.525 "/>
        <path d="M116.0375,24.525 A0.5,0.5 0 0,0 116.5375,24.025 "/>
        <line x1="122.0875" y1="10.525" x2="135.0875" y2="10.525"/>
        <line x1="122.0875" y1="24.525" x2="135.0875" y2="24.525"/>
        <line x1="121.5875" y1="11.025" x2="121.5875" y2="24.025"/>
        <line x1="135.5875" y1="11.025" x2="135.5875" y2="24.025"/>
        <path d="M122.0875,10.525 A0.5,0.5 0 0,0 121.5875,11.025 "/>
        <path d="M135.5875,11.025 A0.5,0.5 0 0,0 135.0875,10.525 "/>
        <path d="M121.5875,24.025 A0.5,0.5 0 0,0 122.0875,24.525 "/>
        <path d="M135.0875,24.525 A0.5,0.5 0 0,0 135.5875,24.025 "/>
        <line x1="141.1375" y1="10.525" x2="154.1375" y2="10.525"/>
        <line x1="141.1375" y1="24.525" x2="154.1375" y2="24.525"/>
        <line x1="140.6375" y1="11.025" x2="140.6375" y2="24.025"/>
        <line x1="154.6375" y1="11.025" x2="154.6375" y2="24.025"/>
        <path d="M141.1375,10.525 A0.5,0.5 0 0,0 140.6375,11.025 "/>
        <path d="M154.6375,11.025 A0.5,0.5 0 0,0 154.1375,10.525 "/>
        <path d="M140.6375,24.025 A0.5,0.5 0 0,0 141.1375,24.525 "/>
        <path d="M154.1375,24.525 A0.5,0.5 0 0,0 154.6375,24.025 "/>
        <line x1="160.1875" y1="10.525" x2="173.1875" y2="10.525"/>
        <line x1="160.1875" y1="24.525" x2="173.1875" y2="24.525"/>
        <line x1="159.6875" y1="11.025" x2="159.6875" y2="24.025"/>
        <line x1="173.6875" y1="11.025" x2="173.6875" y2="24.025"/>
        <path d="M160.1875,10.525 A0.5,0.5 0 0,0 159.6875,11.025 "/>
        <path d="M173.6875,11.025 A0.5,0.5 0 0,0 173.1875,10.525 "/>
        <path d="M159.6875,24.025 A0.5,0.5 0 0,0 160.1875,24.525 "/>
        <path d="M173.1875,24.525 A0.5,0.5 0 0,0 173.6875,24.025 "/>
        <line x1="179.2375" y1="10.525" x2="192.2375" y2="10.525"/>
        <line x1="179.2375" y1="24.525" x2="192.2375" y2="24.525"/>
        <line x1="178.7375" y1="11.025" x2="178.7375" y2="24.025"/>
        <line x1="192.7375" y1="11.025" x2="192.7375" y2="24.025"/>
        <path d="M179.2375,10.525 A0.5,0.5 0 0,0 178.7375,11.025 "/>
        <path d="M192.7375,11.025 A0.5,0.5 0 0,0 192.2375,10.525 "/>
        <path d="M178.7375,24.025 A0.5,0.5 0 0,0 179.2375,24.525 "/>
        <path d="M192.2375,24.525 A0.5,0.5 0 0,0 192.7375,24.025 "/>
        <line x1="198.2875" y1="10.525" x2="211.2875" y2="10.525"/>
        <line x1="198.2875" y1="24.525" x2="211.2875" y2="24.525"/>
        <line x1="197.7875" y1="11.025" x2="197.7875" y2="24.025"/>
        <line x1="211.7875" y1="11.025" x2="211.7875" y2="24.025"/>
        <path d="M198.2875,10.525 A0.5,0.5 0 0,0 197.7875,11.025 "/>
        <path d="M211.7875,11.025 A0.5,0.5 0 0,0 211.2875,10.525 "/>
        <path d="M197.7875,24.025 A0.5,0.5 0 0,0 198.2875,24.525 "/>
        <path d="M211.2875,24.525 A0.5,0.5 0 0,0 211.7875,24.025 "/>
        <line x1="217.3375" y1="10.525" x2="230.3375" y2="10.525"/>
        <line x1="217.3375" y1="24.525" x2="230.3375" y2="24.525"/>
        <line x1="216.8375" y1="11.025" x2="216.8375" y2="24.025"/>
        <line x1="230.8375" y1="11.025" x2="230.8375" y2="24.025"/>
        <path d="M217.3375,10.525 A0.5,0.5 0 0,0 216.8375,11.025 "/>
        <path d="M230.8375,11.025 A0.5,0.5 0 0,0 230.3375,10.525 "/>
        <path d="M216.8375,24.025 A0.5,0.5 0 0,0 217.3375,24.525 "/>
        <path d="M230.3375,24.525 A0.5,0.5 0 0,0 230.8375,24.025 "/>
        <line x1="241.15" y1="10.525" x2="254.15" y2="10.525"/>
        <line x1="241.15" y1="24.525" x2="254.15" y2="24.525"/>
        <line x1="240.65" y1="11.025" x2="240.65" y2="24.025"/>
        <line x1="254.65" y1="11.025" x2="254.65" y2="24.025"/>
        <path d="M241.15,10.525 A0.5,0.5 0 0,0 240.65,11.025 "/>
        <path d="M254.65,11.025 A0.5,0.5 0 0,0 254.15,10.525 "/>
        <path d="M240.65,24.025 A0.5,0.5 0 0,0 241.15,24.525 "/>
        <path d="M254.15,24.525 A0.5,0.5 0 0,0 254.65,24.025 "/>
        <line x1="269.725" y1="10.525" x2="282.725" y2="10.525"/>
        <line x1="269.725" y1="24.525" x2="282.725" y2="24.525"/>
        <line x1="269.225" y1="11.025" x2="269.225" y2="24.025"/>
        <line x1="283.225" y1="11.025" x2="283.225" y2="24.025"/>
        <path d="M269.725,10.525 A0.5,0.5 0 0,0 269.225,11.025 "/>
        <path d="M283.225,11.025 A0.5,0.5 0 0,0 282.725,10.525 "/>
        <path d="M269.225,24.025 A0.5,0.5 0 0,0 269.725,24.525 "/>
        <path d="M282.725,24.525 A0.5,0.5 0 0,0 283.225,24.025 "/>
        <line x1="3.025" y1="29.575" x2="16.025" y2="29.575"/>
        <line x1="3.025" y1="43.575" x2="16.025" y2="43.575"/>
        <line x1="2.525" y1="30.075" x2="2.525" y2="43.075"/>
        <line x1="16.525" y1="30.075" x2="16.525" y2="43.075"/>
        <path d="M3.025,29.575 A0.5,0.5 0 0,0 2.525,30.075 "/>
        <path d="M16.525,30.075 A0.5,0.5 0 0,0 16.025,29.575 "/>
        <path d="M2.525,43.075 A0.5,0.5 0 0,0 3.025,43.575 "/>
        <path d="M16.025,43.575 A0.5,0.5 0 0,0 16.525,43.075 "/>
        <line x1="29.21875" y1="29.575" x2="42.21875" y2="29.575"/>
        <line x1="29.21875" y1="43.575" x2="42.21875" y2="43.575"/>
        <line x1="28.71875" y1="30.075" x2="28.71875" y2="43.075"/>
        <line x1="42.71875" y1="30.075" x2="42.71875" y2="43.075"/>
        <path d="M29.21875,29.575 A0.5,0.5 0 0,0 28.71875,30.075 "/>
        <path d="M42.71875,30.075 A0.5,0.5 0 0,0 42.21875,29.575 "/>
        <path d="M28.71875,43.075 A0.5,0.5 0 0,0 29.21875,43.575 "/>
        <path d="M42.21875,43.575 A0.5,0.5 0 0,0 42.71875,43.075 "/>
        <line x1="50.65" y1="29.575" x2="63.65" y2="29.575"/>
        <line x1="50.65" y1="43.575" x2="63.65" y2="43.575"/>
        <line x1="50.15" y1="30.075" x2="50.15" y2="43.075"/>
        <line x1="64.15" y1="30.075" x2="64.15" y2="43.075"/>
        <path d="M50.65,29.575 A0.5,0.5 0 0,0 50.15,30.075 "/>
        <path d="M64.15,30.075 A0.5,0.5 0 0,0 63.65,29.575 "/>
        <path d="M50.15,43.075 A0.5,0.5 0 0,0 50.65,43.575 "/>
        <path d="M63.65,43.575 A0.5,0.5 0 0,0 64.15,43.075 "/>
        <line x1="69.7" y1="29.575" x2="82.7" y2="29.575"/>
        <line x1="69.7" y1="43.575" x2="82.7" y2="43.575"/>
        <line x1="69.2" y1="30.075" x2="69.2" y2="43.075"/>
        <line x1="83.2" y1="30.075" x2="83.2" y2="43.075"/>
        <path d="M69.7,29.575 A0.5,0.5 0 0,0 69.2,30.075 "/>
        <path d="M83.2,30.075 A0.5,0.5 0 0,0 82.7,29.575 "/>
        <path d="M69.2,43.075 A0.5,0.5 0 0,0 69.7,43.575 "/>
        <path d="M82.7,43.575 A0.5,0.5 0 0,0 83.2,43.075 "/>
        <line x1="88.75" y1="29.575" x2="101.75" y2="29.575"/>
        <line x1="88.75" y1="43.575" x2="101.75" y2="43.575"/>
        <line x1="88.25" y1="30.075" x2="88.25" y2="43.075"/>
        <line x1="102.25" y1="30.075" x2="102.25" y2="43.075"/>
        <path d="M88.75,29.575 A0.5,0.5 0 0,0 88.25,30.075 "/>
        <path d="M102.25,30.075 A0.5,0.5 0 0,0 101.75,29.575 "/>
        <path d="M88.25,43.075 A0.5,0.5 0 0,0 88.75,43.575 "/>
        <path d="M101.75,43.575 A0.5,0.5 0 0,0 102.25,43.075 "/>
        <line x1="107.8" y1="29.575" x2="120.8" y2="29.575"/>
        <line x1="107.8" y1="43.575" x2="120.8" y2="43.575"/>
        <line x1="107.3" y1="30.075" x2="107.3" y2="43.075"/>
        <line x1="121.3" y1="30.075" x2="121.3" y2="43.075"/>
        <path d="M107.8,29.575 A0.5,0.5 0 0,0 107.3,30.075 "/>
        <path d="M121.3,30.075 A0.5,0.5 0 0,0 120.8,29.575 "/>
        <path d="M107.3,43.075 A0.5,0.5 0 0,0 107.8,43.575 "/>
        <path d="M120.8,43.575 A0.5,0.5 0 0,0 121.3,43.075 "/>
        <line x1="126.85" y1="29.575" x2="139.85" y2="29.575"/>
        <line x1="126.85" y1="43.575" x2="139.85" y2="43.575"/>
        <line x1="126.35" y1="30.075" x2="126.35" y2="43.075"/>
        <line x1="140.35" y1="30.075" x2="140.35" y2="43.075"/>
        <path d="M126.85,29.575 A0.5,0.5 0 0,0 126.35,30.075 "/>
        <path d="M140.35,30.075 A0.5,0.5 0 0,0 139.85,29.575 "/>
        <path d="M126.35,43.075 A0.5,0.5 0 0,0 126.85,43.575 "/>
        <path d="M139.85,43.575 A0.5,0.5 0 0,0 140.35,43.075 "/>
        <line x1="145.9" y1="29.575" x2="158.9" y2="29.575"/>
        <line x1="145.9" y1="43.575" x2="158.9" y2="43.575"/>
        <line x1="145.4" y1="30.075" x2="145.4" y2="43.075"/>
        <line x1="159.4" y1="30.075" x2="159.4" y2="43.075"/>
        <path d="M145.9,29.575 A0.5,0.5 0 0,0 145.4,30.075 "/>
        <path d="M159.4,30.075 A0.5,0.5 0 0,0 158.9,29.575 "/>
        <path d="M145.4,43.075 A0.5,0.5 0 0,0 145.9,43.575 "/>
        <path d="M158.9,43.575 A0.5,0.5 0 0,0 159.4,43.075 "/>
        <line x1="164.95" y1="29.575" x2="177.95" y2="29.575"/>
        <line x1="164.95" y1="43.575" x2="177.95" y2="43.575"/>
        <line x1="164.45" y1="30.075" x2="164.45" y2="43.075"/>
        <line x1="178.45" y1="30.075" x2="178.45" y2="43.075"/>
        <path d="M164.95,29.575 A0.5,0.5 0 0,0 164.45,30.075 "/>
        <path d="M178.45,30.075 A0.5,0.5 0 0,0 177.95,29.575 "/>
        <path d="M164.45,43.075 A0.5,0.5 0 0,0 164.95,43.575 "/>
        <path d="M177.95,43.575 A0.5,0.5 0 0,0 178.45,43.075 "/>
        <line x1="184" y1="29.575" x2="197" y2="29.575"/>
        <line x1="184" y1="43.575" x2="197" y2="43.575"/>
        <line x1="183.5" y1="30.075" x2="183.5" y2="43.075"/>
        <line x1="197.5" y1="30.075" x2="197.5" y2="43.075"/>
        <path d="M184,29.575 A0.5,0.5 0 0,0 183.5,30.075 "/>
        <path d="M197.5,30.075 A0.5,0.5 0 0,0 197,29.575 "/>
        <path d="M183.5,43.075 A0.5,0.5 0 0,0 184,43.575 "/>
        <path d="M197,43.575 A0.5,0.5 0 0,0 197.5,43.075 "/>
        <line x1="203.05" y1="29.575" x2="216.05" y2="29.575"/>
        <line x1="203.05" y1="43.575" x2="216.05" y2="43.575"/>
        <line x1="202.55" y1="30.075" x2="202.55" y2="43.075"/>
        <line x1="216.55" y1="30.075" x2="216.55" y2="43.075"/>
        <path d="M203.05,29.575 A0.5,0.5 0 0,0 202.55,30.075 "/>
        <path d="M216.55,30.075 A0.5,0.5 0 0,0 216.05,29.575 "/>
        <path d="M202.55,43.075 A0.5,0.5 0 0,0 203.05,43.575 "/>
        <path d="M216.05,43.575 A0.5,0.5 0 0,0 216.55,43.075 "/>
        <line x1="222.1" y1="29.575" x2="235.1" y2="29.575"/>
        <line x1="222.1" y1="43.575" x2="235.1" y2="43.575"/>
        <line x1="221.6" y1="30.075" x2="221.6" y2="43.075"/>
        <line x1="235.6" y1="30.075" x2="235.6" y2="43.075"/>
        <path d="M222.1,29.575 A0.5,0.5 0 0,0 221.6,30.075 "/>
        <path d="M235.6,30.075 A0.5,0.5 0 0,0 235.1,29.575 "/>
        <path d="M221.6,43.075 A0.5,0.5 0 0,0 222.1,43.575 "/>
        <path d="M235.1,43.575 A0.5,0.5 0 0,0 235.6,43.075 "/>
        <line x1="243.53125" y1="29.575" x2="256.53125" y2="29.575"/>
        <line x1="243.53125" y1="43.575" x2="256.53125" y2="43.575"/>
        <line x1="243.03125" y1="30.075" x2="243.03125" y2="43.075"/>
        <line x1="257.03125" y1="30.075" x2="257.03125" y2="43.075"/>
        <path d="M243.53125,29.575 A0.5,0.5 0 0,0 243.03125,30.075 "/>
        <path d="M257.03125,30.075 A0.5,0.5 0 0,0 256.53125,29.575 "/>
        <path d="M243.03125,43.075 A0.5,0.5 0 0,0 243.53125,43.575 "/>
        <path d="M256.53125,43.575 A0.5,0.5 0 0,0 257.03125,43.075 "/>
        <line x1="269.725" y1="29.575" x2="282.725" y2="29.575"/>
        <line x1="269.725" y1="43.575" x2="282.725" y2="43.575"/>
        <line x1="269.225" y1="30.075" x2="269.225" y2="43.075"/>
        <line x1="283.225" y1="30.075" x2="283.225" y2="43.075"/>
        <path d="M269.725,29.575 A0.5,0.5 0 0,0 269.225,30.075 "/>
        <path d="M283.225,30.075 A0.5,0.5 0 0,0 282.725,29.575 "/>
        <path d="M269.225,43.075 A0.5,0.5 0 0,0 269.725,43.575 "/>
        <path d="M282.725,43.575 A0.5,0.5 0 0,0 283.225,43.075 "/>
        <line x1="3.025" y1="48.625" x2="16.025" y2="48.625"/>
        <line x1="3.025" y1="62.625" x2="16.025" y2="62.625"/>
        <line x1="2.525" y1="49.125" x2="2.525" y2="62.125"/>
        <line x1="16.525" y1="49.125" x2="16.525" y2="62.125"/>
        <path d="M3.025,48.625 A0.5,0.5 0 0,0 2.525,49.125 "/>
        <path d="M16.525,49.125 A0.5,0.5 0 0,0 16.025,48.625 "/>
        <path d="M16.025,62.625 A0.5,0.5 0 0,0 16.525,62.125 "/>
        <line x1="33.98125" y1="48.625" x2="46.98125" y2="48.625"/>
        <line x1="33.98125" y1="62.625" x2="46.98125" y2="62.625"/>
        <line x1="33.48125" y1="49.125" x2="33.48125" y2="62.125"/>
        <line x1="47.48125" y1="49.125" x2="47.48125" y2="62.125"/>
        <path d="M33.98125,48.625 A0.5,0.5 0 0,0 33.48125,49.125 "/>
        <path d="M47.48125,49.125 A0.5,0.5 0 0,0 46.98125,48.625 "/>
        <path d="M33.48125,62.125 A0.5,0.5 0 0,0 33.98125,62.625 "/>
        <path d="M46.98125,62.625 A0.5,0.5 0 0,0 47.48125,62.125 "/>
        <line x1="60.175" y1="48.625" x2="73.175" y2="48.625"/>
        <line x1="60.175" y1="62.625" x2="73.175" y2="62.625"/>
        <line x1="59.675" y1="49.125" x2="59.675" y2="62.125"/>
        <line x1="73.675" y1="49.125" x2="73.675" y2="62.125"/>
        <path d="M60.175,48.625 A0.5,0.5 0 0,0 59.675,49.125 "/>
        <path d="M73.675,49.125 A0.5,0.5 0 0,0 73.175,48.625 "/>
        <path d="M59.675,62.125 A0.5,0.5 0 0,0 60.175,62.625 "/>
        <path d="M73.175,62.625 A0.5,0.5 0 0,0 73.675,62.125 "/>
        <line x1="79.225" y1="48.625" x2="92.225" y2="48.625"/>
        <line x1="79.225" y1="62.625" x2="92.225" y2="62.625"/>
        <line x1="78.725" y1="49.125" x2="78.725" y2="62.125"/>
        <line x1="92.725" y1="49.125" x2="92.725" y2="62.125"/>
        <path d="M79.225,48.625 A0.5,0.5 0 0,0 78.725,49.125 "/>
        <path d="M92.725,49.125 A0.5,0.5 0 0,0 92.225,48.625 "/>
        <path d="M78.725,62.125 A0.5,0.5 0 0,0 79.225,62.625 "/>
        <path d="M92.225,62.625 A0.5,0.5 0 0,0 92.725,62.125 "/>
        <line x1="98.275" y1="48.625" x2="111.275" y2="48.625"/>
        <line x1="98.275" y1="62.625" x2="111.275" y2="62.625"/>
        <line x1="97.775" y1="49.125" x2="97.775" y2="62.125"/>
        <line x1="111.775" y1="49.125" x2="111.775" y2="62.125"/>
        <path d="M98.275,48.625 A0.5,0.5 0 0,0 97.775,49.125 "/>
        <path d="M111.775,49.125 A0.5,0.5 0 0,0 111.275,48.625 "/>
        <path d="M97.775,62.125 A0.5,0.5 0 0,0 98.275,62.625 "/>
        <path d="M111.275,62.625 A0.5,0.5 0 0,0 111.775,62.125 "/>
        <line x1="117.325" y1="48.625" x2="130.325" y2="48.625"/>
        <line x1="117.325" y1="62.625" x2="130.325" y2="62.625"/>
        <line x1="116.825" y1="49.125" x2="116.825" y2="62.125"/>
        <line x1="130.825" y1="49.125" x2="130.825" y2="62.125"/>
        <path d="M117.325,48.625 A0.5,0.5 0 0,0 116.825,49.125 "/>
        <path d="M130.825,49.125 A0.5,0.5 0 0,0 130.325,48.625 "/>
        <path d="M116.825,62.125 A0.5,0.5 0 0,0 117.325,62.625 "/>
        <path d="M130.325,62.625 A0.5,0.5 0 0,0 130.825,62.125 "/>
        <line x1="136.375" y1="48.625" x2="149.375" y2="48.625"/>
        <line x1="136.375" y1="62.625" x2="149.375" y2="62.625"/>
        <line x1="135.875" y1="49.125" x2="135.875" y2="62.125"/>
        <line x1="149.875" y1="49.125" x2="149.875" y2="62.125"/>
        <path d="M136.375,48.625 A0.5,0.5 0 0,0 135.875,49.125 "/>
        <path d="M149.875,49.125 A0.5,0.5 0 0,0 149.375,48.625 "/>
        <path d="M135.875,62.125 A0.5,0.5 0 0,0 136.375,62.625 "/>
        <path d="M149.375,62.625 A0.5,0.5 0 0,0 149.875,62.125 "/>
        <line x1="155.425" y1="48.625" x2="168.425" y2="48.625"/>
        <line x1="155.425" y1="62.625" x2="168.425" y2="62.625"/>
        <line x1="154.925" y1="49.125" x2="154.925" y2="62.125"/>
        <line x1="168.925" y1="49.125" x2="168.925" y2="62.125"/>
        <path d="M155.425,48.625 A0.5,0.5 0 0,0 154.925,49.125 "/>
        <path d="M168.925,49.125 A0.5,0.5 0 0,0 168.425,48.625 "/>
        <path d="M154.925,62.125 A0.5,0.5 0 0,0 155.425,62.625 "/>
        <path d="M168.425,62.625 A0.5,0.5 0 0,0 168.925,62.125 "/>
        <line x1="174.475" y1="48.625" x2="187.475" y2="48.625"/>
        <line x1="174.475" y1="62.625" x2="187.475" y2="62.625"/>
        <line x1="173.975" y1="49.125" x2="173.975" y2="62.125"/>
        <line x1="187.975" y1="49.125" x2="187.975" y2="62.125"/>
        <path d="M174.475,48.625 A0.5,0.5 0 0,0 173.975,49.125 "/>
        <path d="M187.975,49.125 A0.5,0.5 0 0,0 187.475,48.625 "/>
        <path d="M173.975,62.125 A0.5,0.5 0 0,0 174.475,62.625 "/>
        <path d="M187.475,62.625 A0.5,0.5 0 0,0 187.975,62.125 "/>
        <line x1="193.525" y1="48.625" x2="206.525" y2="48.625"/>
        <line x1="193.525" y1="62.625" x2="206.525" y2="62.625"/>
        <line x1="193.025" y1="49.125" x2="193.025" y2="62.125"/>
        <line x1="207.025" y1="49.125" x2="207.025" y2="62.125"/>
        <path d="M193.525,48.625 A0.5,0.5 0 0,0 193.025,49.125 "/>
        <path d="M207.025,49.125 A0.5,0.5 0 0,0 206.525,48.625 "/>
        <path d="M193.025,62.125 A0.5,0.5 0 0,0 193.525,62.625 "/>
        <path d="M206.525,62.625 A0.5,0.5 0 0,0 207.025,62.125 "/>
        <line x1="212.575" y1="48.625" x2="225.575" y2="48.625"/>
        <line x1="212.575" y1="62.625" x2="225.575" y2="62.625"/>
        <line x1="212.075" y1="49.125" x2="212.075" y2="62.125"/>
        <line x1="226.075" y1="49.125" x2="226.075" y2="62.125"/>
        <path d="M212.575,48.625 A0.5,0.5 0 0,0 212.075,49.125 "/>
        <path d="M226.075,49.125 A0.5,0.5 0 0,0 225.575,48.625 "/>
        <path d="M212.075,62.125 A0.5,0.5 0 0,0 212.575,62.625 "/>
        <path d="M225.575,62.625 A0.5,0.5 0 0,0 226.075,62.125 "/>
        <line x1="238.76875" y1="48.625" x2="251.76875" y2="48.625"/>
        <line x1="238.76875" y1="62.625" x2="251.76875" y2="62.625"/>
        <line x1="238.26875" y1="49.125" x2="238.26875" y2="62.125"/>
        <line x1="252.26875" y1="49.125" x2="252.26875" y2="62.125"/>
        <path d="M238.76875,48.625 A0.5,0.5 0 0,0 238.26875,49.125 "/>
        <path d="M252.26875,49.125 A0.5,0.5 0 0,0 251.76875,48.625 "/>
        <path d="M238.26875,62.125 A0.5,0.5 0 0,0 238.76875,62.625 "/>
        <path d="M251.76875,62.625 A0.5,0.5 0 0,0 252.26875,62.125 "/>
        <line x1="269.725" y1="48.625" x2="282.725" y2="48.625"/>
        <line x1="269.725" y1="62.625" x2="282.725" y2="62.625"/>
        <line x1="269.225" y1="49.125" x2="269.225" y2="62.125"/>
        <line x1="283.225" y1="49.125" x2="283.225" y2="62.125"/>
        <path d="M269.725,48.625 A0.5,0.5 0 0,0 269.225,49.125 "/>
        <path d="M283.225,49.125 A0.5,0.5 0 0,0 282.725,48.625 "/>
        <path d="M269.225,62.125 A0.5,0.5 0 0,0 269.725,62.625 "/>
        <path d="M282.725,62.625 A0.5,0.5 0 0,0 283.225,62.125 "/>
        <line x1="41.125" y1="67.675" x2="54.125" y2="67.675"/>
        <line x1="41.125" y1="81.675" x2="54.125" y2="81.675"/>
        <line x1="40.625" y1="68.175" x2="40.625" y2="81.175"/>
        <line x1="54.625" y1="68.175" x2="54.625" y2="81.175"/>
        <path d="M41.125,67.675 A0.5,0.5 0 0,0 40.625,68.175 "/>
        <path d="M54.625,68.175 A0.5,0.5 0 0,0 54.125,67.675 "/>
        <path d="M40.625,81.175 A0.5,0.5 0 0,0 41.125,81.675 "/>
        <path d="M54.125,81.675 A0.5,0.5 0 0,0 54.625,81.175 "/>
        <line x1="60.175" y1="67.675" x2="73.175" y2="67.675"/>
        <line x1="60.175" y1="81.675" x2="73.175" y2="81.675"/>
        <line x1="59.675" y1="68.175" x2="59.675" y2="81.175"/>
        <line x1="73.675" y1="68.175" x2="73.675" y2="81.175"/>
        <path d="M60.175,67.675 A0.5,0.5 0 0,0 59.675,68.175 "/>
        <path d="M73.675,68.175 A0.5,0.5 0 0,0 73.175,67.675 "/>
        <path d="M59.675,81.175 A0.5,0.5 0 0,0 60.175,81.675 "/>
        <path d="M73.175,81.675 A0.5,0.5 0 0,0 73.675,81.175 "/>
        <line x1="79.225" y1="67.675" x2="92.225" y2="67.675"/>
        <line x1="79.225" y1="81.675" x2="92.225" y2="81.675"/>
        <line x1="78.725" y1="68.175" x2="78.725" y2="81.175"/>
        <line x1="92.725" y1="68.175" x2="92.725" y2="81.175"/>
        <path d="M79.225,67.675 A0.5,0.5 0 0,0 78.725,68.175 "/>
        <path d="M92.725,68.175 A0.5,0.5 0 0,0 92.225,67.675 "/>
        <path d="M78.725,81.175 A0.5,0.5 0 0,0 79.225,81.675 "/>
        <path d="M92.225,81.675 A0.5,0.5 0 0,0 92.725,81.175 "/>
        <line x1="110.18125" y1="67.675" x2="123.18125" y2="67.675"/>
        <line x1="110.18125" y1="81.675" x2="123.18125" y2="81.675"/>
        <line x1="109.68125" y1="68.175" x2="109.68125" y2="81.175"/>
        <line x1="123.68125" y1="68.175" x2="123.68125" y2="81.175"/>
        <path d="M110.18125,67.675 A0.5,0.5 0 0,0 109.68125,68.175 "/>
        <path d="M123.68125,68.175 A0.5,0.5 0 0,0 123.18125,67.675 "/>
        <path d="M109.68125,81.175 A0.5,0.5 0 0,0 110.18125,81.675 "/>
        <path d="M123.18125,81.675 A0.5,0.5 0 0,0 123.68125,81.175 "/>
        <line x1="101.74325" y1="68.675" x2="107.74325" y2="68.675"/>
        <line x1="101.74325" y1="83.675" x2="107.74325" y2="83.675"/>
        <line x1="101.24325" y1="69.175" x2="101.24325" y2="83.175"/>
        <line x1="108.24325" y1="69.175" x2="108.24325" y2="83.175"/>
        <path d="M101.74325,68.675 A0.5,0.5 0 0,0 101.24325,69.175 "/>
        <path d="M108.24325,69.175 A0.5,0.5 0 0,0 107.74325,68.675 "/>
        <path d="M101.24325,83.175 A0.5,0.5 0 0,0 101.74325,83.675 "/>
        <path d="M107.74325,83.675 A0.5,0.5 0 0,0 108.24325,83.175 "/>
        <line x1="125.61925" y1="68.675" x2="131.61925" y2="68.675"/>
        <line x1="125.61925" y1="83.675" x2="131.61925" y2="83.675"/>
        <line x1="125.11925" y1="69.175" x2="125.11925" y2="83.175"/>
        <line x1="132.11925" y1="69.175" x2="132.11925" y2="83.175"/>
        <path d="M125.61925,68.675 A0.5,0.5 0 0,0 125.11925,69.175 "/>
        <path d="M132.11925,69.175 A0.5,0.5 0 0,0 131.61925,68.675 "/>
        <path d="M125.11925,83.175 A0.5,0.5 0 0,0 125.61925,83.675 "/>
        <path d="M131.61925,83.675 A0.5,0.5 0 0,0 132.11925,83.175 "/>
        <line x1="157.80625" y1="67.675" x2="170.80625" y2="67.675"/>
        <line x1="157.80625" y1="81.675" x2="170.80625" y2="81.675"/>
        <line x1="157.30625" y1="68.175" x2="157.30625" y2="81.175"/>
        <line x1="171.30625" y1="68.175" x2="171.30625" y2="81.175"/>
        <path d="M157.80625,67.675 A0.5,0.5 0 0,0 157.30625,68.175 "/>
        <path d="M171.30625,68.175 A0.5,0.5 0 0,0 170.80625,67.675 "/>
        <path d="M157.30625,81.175 A0.5,0.5 0 0,0 157.80625,81.675 "/>
        <path d="M170.80625,81.675 A0.5,0.5 0 0,0 171.30625,81.175 "/>
        <line x1="149.36825" y1="68.675" x2="155.36825" y2="68.675"/>
        <line x1="149.36825" y1="83.675" x2="155.36825" y2="83.675"/>
        <line x1="148.86825" y1="69.175" x2="148.86825" y2="83.175"/>
        <line x1="155.86825" y1="69.175" x2="155.86825" y2="83.175"/>
        <path d="M149.36825,68.675 A0.5,0.5 0 0,0 148.86825,69.175 "/>
        <path d="M155.86825,69.175 A0.5,0.5 0 0,0 155.36825,68.675 "/>
        <path d="M148.86825,83.175 A0.5,0.5 0 0,0 149.36825,83.675 "/>
        <path d="M155.36825,83.675 A0.5,0.5 0 0,0 155.86825,83.175 "/>
        <line x1="173.24425" y1="68.675" x2="179.24425" y2="68.675"/>
        <line x1="173.24425" y1="83.675" x2="179.24425" y2="83.675"/>
        <line x1="172.74425" y1="69.175" x2="172.74425" y2="83.175"/>
        <line x1="179.74425" y1="69.175" x2="179.74425" y2="83.175"/>
        <path d="M173.24425,68.675 A0.5,0.5 0 0,0 172.74425,69.175 "/>
        <path d="M179.74425,69.175 A0.5,0.5 0 0,0 179.24425,68.675 "/>
        <path d="M172.74425,83.175 A0.5,0.5 0 0,0 173.24425,83.675 "/>
        <path d="M179.24425,83.675 A0.5,0.5 0 0,0 179.74425,83.175 "/>
        <line x1="193.525" y1="67.675" x2="206.525" y2="67.675"/>
        <line x1="193.525" y1="81.675" x2="206.525" y2="81.675"/>
        <line x1="193.025" y1="68.175" x2="193.025" y2="81.175"/>
        <line x1="207.025" y1="68.175" x2="207.025" y2="81.175"/>
        <path d="M193.525,67.675 A0.5,0.5 0 0,0 193.025,68.175 "/>
        <path d="M207.025,68.175 A0.5,0.5 0 0,0 206.525,67.675 "/>
        <path d="M193.025,81.175 A0.5,0.5 0 0,0 193.525,81.675 "/>
        <path d="M206.525,81.675 A0.5,0.5 0 0,0 207.025,81.175 "/>
        <line x1="212.575" y1="67.675" x2="225.575" y2="67.675"/>
        <line x1="212.575" y1="81.675" x2="225.575" y2="81.675"/>
        <line x1="212.075" y1="68.175" x2="212.075" y2="81.175"/>
        <line x1="226.075" y1="68.175" x2="226.075" y2="81.175"/>
        <path d="M212.575,67.675 A0.5,0.5 0 0,0 212.075,68.175 "/>
        <path d="M226.075,68.175 A0.5,0.5 0 0,0 225.575,67.675 "/>
        <path d="M212.075,81.175 A0.5,0.5 0 0,0 212.575,81.675 "/>
        <path d="M225.575,81.675 A0.5,0.5 0 0,0 226.075,81.175 "/>
        <line x1="231.625" y1="67.675" x2="244.625" y2="67.675"/>
        <line x1="231.625" y1="81.675" x2="244.625" y2="81.675"/>
        <line x1="231.125" y1="68.175" x2="231.125" y2="81.175"/>
        <line x1="245.125" y1="68.175" x2="245.125" y2="81.175"/>
        <path d="M231.625,67.675 A0.5,0.5 0 0,0 231.125,68.175 "/>
        <path d="M245.125,68.175 A0.5,0.5 0 0,0 244.625,67.675 "/>
        <path d="M231.125,81.175 A0.5,0.5 0 0,0 231.625,81.675 "/>
        <path d="M244.625,81.675 A0.5,0.5 0 0,0 245.125,81.175 "/>
        <path d="M2.525,62.125 A0.5,0.5 0 0,0 3.025,62.625 "/>
        <path d="M0,68 C20.27,66.4 30,85 30,85 "/>
        <path d="M285.75,68 C265.48231099,66.41448576 255.752,85 255.752,85 "/>
        <line x1="55" y1="93" x2="80" y2="93"/>
        <line x1="55" y1="87" x2="65" y2="87"/>
        <line x1="70" y1="87" x2="80" y2="87"/>
        <path d="M65,87 A1.45,1.45 0 0,0 65,85 "/>
        <path d="M70,87 A1.45,1.45 0 0,1 70,85 "/>
        <path d="M55,87 A3,3 0 0,0 55,93 "/>
        <path d="M80,87 A3,3 0 1,1 80,93 "/>
        <circle cx="67.5" cy="90" r="1.25"/>
        <line x1="30" y1="85" x2="65" y2="85"/>
        <line x1="255.752" y1="85" x2="220.752" y2="85"/>
        <line x1="205.752" y1="93" x2="230.752" y2="93"/>
        <line x1="205.752" y1="87" x2="215.752" y2="87"/>
        <line x1="220.752" y1="87" x2="230.752" y2="87"/>
        <path d="M215.752,87 A1.45,1.45 0 0,0 215.752,85 "/>
        <path d="M220.752,87 A1.45,1.45 0 0,1 220.752,85 "/>
        <path d="M205.752,87 A3,3 0 0,0 205.752,93 "/>
        <path d="M230.752,87 A3,3 0 1,1 230.752,93 "/>
        <circle cx="218.252" cy="90" r="1.25"/>
        <line x1="130.376" y1="0" x2="155.376" y2="0"/>
        <line x1="130.376" y1="6" x2="140.376" y2="6"/>
        <line x1="145.376" y1="6" x2="155.376" y2="6"/>
        <path d="M140.376,6 A1.45,1.45 0 0,1 140.376,8 "/>
        <path d="M145.376,6 A1.45,1.45 0 0,0 145.376,8 "/>
        <path d="M130.376,6 A3,3 0 1,1 130.376,0 "/>
        <path d="M155.376,6 A3,3 0 0,0 155.376,0 "/>
        <circle cx="142.876" cy="3" r="1.25"/>
        <line x1="70" y1="85" x2="215.752" y2="85"/>
        <line x1="35.125" y1="0" x2="60.125" y2="0"/>
        <line x1="35.125" y1="6" x2="45.125" y2="6"/>
        <line x1="50.125" y1="6" x2="60.125" y2="6"/>
        <path d="M45.125,6 A1.45,1.45 0 0,1 45.125,8 "/>
        <path d="M50.125,6 A1.45,1.45 0 0,0 50.125,8 "/>
        <path d="M35.125,6 A3,3 0 1,1 35.125,0 "/>
        <path d="M60.125,6 A3,3 0 0,0 60.125,0 "/>
        <circle cx="47.625" cy="3" r="1.25"/>
        <line x1="220.627" y1="0" x2="245.627" y2="0"/>
        <line x1="220.627" y1="6" x2="230.627" y2="6"/>
        <line x1="235.627" y1="6" x2="245.627" y2="6"/>
        <path d="M230.627,6 A1.45,1.45 0 0,1 230.627,8 "/>
        <path d="M235.627,6 A1.45,1.45 0 0,0 235.627,8 "/>
        <path d="M220.627,6 A3,3 0 1,1 220.627,0 "/>
        <path d="M245.627,6 A3,3 0 0,0 245.627,0 "/>
        <circle cx="233.127" cy="3" r="1.25"/>
        <line x1="285.75" y1="8" x2="235.627" y2="8"/>
        <line x1="230.627" y1="8" x2="145.376" y2="8"/>
        <line x1="50.125" y1="8" x2="140.376" y2="8"/>
        <line x1="0" y1="8" x2="45.125" y2="8"/>
        <line x1="285.75" y1="8" x2="285.75" y2="68"/>
        <line x1="0" y1="8" x2="0" y2="68"/>
    </g>
</svg>
