<?xml version="1.0"?>
<svg xmlns="http://www.w3.org/2000/svg" xmlns:lc="https://librecad.org" xmlns:xlink="http://www.w3.org/1999/xlink" width="301.75mm" height="93mm" viewBox="0 0 301.75 93">
    <g lc:layername="0" lc:is_locked="false" lc:is_construction="false" fill="none" stroke="black" stroke-width="1">
        <line x1="11.025" y1="10.525" x2="24.025" y2="10.525"/>
        <line x1="11.025" y1="24.525" x2="24.025" y2="24.525"/>
        <line x1="10.525" y1="11.025" x2="10.525" y2="24.025"/>
        <line x1="24.525" y1="11.025" x2="24.525" y2="24.025"/>
        <path d="M11.025,10.525 A0.5,0.5 0 0,0 10.525,11.025 "/>
        <path d="M24.525,11.025 A0.5,0.5 0 0,0 24.025,10.525 "/>
        <path d="M10.525,24.025 A0.5,0.5 0 0,0 11.025,24.525 "/>
        <path d="M24.025,24.525 A0.5,0.5 0 0,0 24.525,24.025 "/>
        <line x1="34.8375" y1="10.525" x2="47.8375" y2="10.525"/>
        <line x1="34.8375" y1="24.525" x2="47.8375" y2="24.525"/>
        <line x1="34.3375" y1="11.025" x2="34.3375" y2="24.025"/>
        <line x1="48.3375" y1="11.025" x2="48.3375" y2="24.025"/>
        <path d="M34.8375,10.525 A0.5,0.5 0 0,0 34.3375,11.025 "/>
        <path d="M48.3375,11.025 A0.5,0.5 0 0,0 47.8375,10.525 "/>
        <path d="M34.3375,24.025 A0.5,0.5 0 0,0 34.8375,24.525 "/>
        <path d="M47.8375,24.525 A0.5,0.5 0 0,0 48.3375,24.025 "/>
        <line x1="53.8875" y1="10.525" x2="66.8875" y2="10.525"/>
        <line x1="53.8875" y1="24.525" x2="66.8875" y2="24.525"/>
        <line x1="53.3875" y1="11.025" x2="53.3875" y2="24.025"/>
        <line x1="67.3875" y1="11.025" x2="67.3875" y2="24.025"/>
        <path d="M53.8875,10.525 A0.5,0.5 0 0,0 53.3875,11.025 "/>
        <path d="M67.3875,11.025 A0.5,0.5 0 0,0 66.8875,10.525 "/>
        <path d="M53.3875,24.025 A0.5,0.5 0 0,0 53.8875,24.525 "/>
        <path d="M66.8875,24.525 A0.5,0.5 0 0,0 67.3875,24.025 "/>
        <line x1="72.9375" y1="10.525" x2="85.9375" y2="10.525"/>
        <line x1="72.9375" y1="24.525" x2="85.9375" y2="24.525"/>
        <line x1="72.4375" y1="11.025" x2="72.4375" y2="24.025"/>
        <line x1="86.4375" y1="11.025" x2="86.4375" y2="24.025"/>
        <path d="M72.9375,10.525 A0.5,0.5 0 0,0 72.4375,11.025 "/>
        <path d="M86.4375,11.025 A0.5,0.5 0 0,0 85.9375,10.525 "/>
        <path d="M72.4375,24.025 A0.5,0.5 0 0,0 72.9375,24.525 "/>
        <path d="M85.9375,24.525 A0.5,0.5 0 0,0 86.4375,24.025 "/>
        <line x1="91.9875" y1="10.525" x2="104.9875" y2="10.525"/>
        <line x1="91.9875" y1="24.525" x2="104.9875" y2="24.525"/>
        <line x1="91.4875" y1="11.025" x2="91.4875" y2="24.025"/>
        <line x1="105.4875" y1="11.025" x2="105.4875" y2="24.025"/>
        <path d="M91.9875,10.525 A0.5,0.5 0 0,0 91.4875,11.025 "/>
        <path d="M105.4875,11.025 A0.5,0.5 0 0,0 104.9875,10.525 "/>
        <path d="M91.4875,24.025 A0.5,0.5 0 0,0 91.9875,24.525 "/>
        <path d="M104.9875,24.525 A0.5,0.5 0 0,0 105.4875,24.025 "/>
        <line x1="111.0375" y1="10.525" x2="124.0375" y2="10.525"/>
        <line x1="111.0375" y1="24.525" x2="124.0375" y2="24.525"/>
        <line x1="110.5375" y1="11.025" x2="110.5375" y2="24.025"/>
        <line x1="124.5375" y1="11.025" x2="124.5375" y2="24.025"/>
        <path d="M111.0375,10.525 A0.5,0.5 0 0,0 110.5375,11.025 "/>
        <path d="M124.5375,11.025 A0.5,0.5 0 0,0 124.0375,10.525 "/>
        <path d="M110.5375,24.025 A0.5,0.5 0 0,0 111.0375,24.525 "/>
        <path d="M124.0375,24.525 A0.5,0.5 0 0,0 124.5375,24.025 "/>
        <line x1="130.0875" y1="10.525" x2="143.0875" y2="10.525"/>
        <line x1="130.0875" y1="24.525" x2="143.0875" y2="24.525"/>
        <line x1="129.5875" y1="11.025" x2="129.5875" y2="24.025"/>
        <line x1="143.5875" y1="11.025" x2="143.5875" y2="24.025"/>
        <path d="M130.0875,10.525 A0.5,0.5 0 0,0 129.5875,11.025 "/>
        <path d="M143.5875,11.025 A0.5,0.5 0 0,0 143.0875,10.525 "/>
        <path d="M129.5875,24.025 A0.5,0.5 0 0,0 130.0875,24.525 "/>
        <path d="M143.0875,24.525 A0.5,0.5 0 0,0 143.5875,24.025 "/>
        <line x1="149.1375" y1="10.525" x2="162.1375" y2="10.525"/>
        <line x1="149.1375" y1="24.525" x2="162.1375" y2="24.525"/>
        <line x1="148.6375" y1="11.025" x2="148.6375" y2="24.025"/>
        <line x1="162.6375" y1="11.025" x2="162.6375" y2="24.025"/>
        <path d="M149.1375,10.525 A0.5,0.5 0 0,0 148.6375,11.025 "/>
        <path d="M162.6375,11.025 A0.5,0.5 0 0,0 162.1375,10.525 "/>
        <path d="M148.6375,24.025 A0.5,0.5 0 0,0 149.1375,24.525 "/>
        <path d="M162.1375,24.525 A0.5,0.5 0 0,0 162.6375,24.025 "/>
        <line x1="168.1875" y1="10.525" x2="181.1875" y2="10.525"/>
        <line x1="168.1875" y1="24.525" x2="181.1875" y2="24.525"/>
        <line x1="167.6875" y1="11.025" x2="167.6875" y2="24.025"/>
        <line x1="181.6875" y1="11.025" x2="181.6875" y2="24.025"/>
        <path d="M168.1875,10.525 A0.5,0.5 0 0,0 167.6875,11.025 "/>
        <path d="M181.6875,11.025 A0.5,0.5 0 0,0 181.1875,10.525 "/>
        <path d="M167.6875,24.025 A0.5,0.5 0 0,0 168.1875,24.525 "/>
        <path d="M181.1875,24.525 A0.5,0.5 0 0,0 181.6875,24.025 "/>
        <line x1="187.2375" y1="10.525" x2="200.2375" y2="10.525"/>
        <line x1="187.2375" y1="24.525" x2="200.2375" y2="24.525"/>
        <line x1="186.7375" y1="11.025" x2="186.7375" y2="24.025"/>
        <line x1="200.7375" y1="11.025" x2="200.7375" y2="24.025"/>
        <path d="M187.2375,10.525 A0.5,0.5 0 0,0 186.7375,11.025 "/>
        <path d="M200.7375,11.025 A0.5,0.5 0 0,0 200.2375,10.525 "/>
        <path d="M186.7375,24.025 A0.5,0.5 0 0,0 187.2375,24.525 "/>
        <path d="M200.2375,24.525 A0.5,0.5 0 0,0 200.7375,24.025 "/>
        <line x1="206.2875" y1="10.525" x2="219.2875" y2="10.525"/>
        <line x1="206.2875" y1="24.525" x2="219.2875" y2="24.525"/>
        <line x1="205.7875" y1="11.025" x2="205.7875" y2="24.025"/>
        <line x1="219.7875" y1="11.025" x2="219.7875" y2="24.025"/>
        <path d="M206.2875,10.525 A0.5,0.5 0 0,0 205.7875,11.025 "/>
        <path d="M219.7875,11.025 A0.5,0.5 0 0,0 219.2875,10.525 "/>
        <path d="M205.7875,24.025 A0.5,0.5 0 0,0 206.2875,24.525 "/>
        <path d="M219.2875,24.525 A0.5,0.5 0 0,0 219.7875,24.025 "/>
        <line x1="225.3375" y1="10.525" x2="238.3375" y2="10.525"/>
        <line x1="225.3375" y1="24.525" x2="238.3375" y2="24.525"/>
        <line x1="224.8375" y1="11.025" x2="224.8375" y2="24.025"/>
        <line x1="238.8375" y1="11.025" x2="238.8375" y2="24.025"/>
        <path d="M225.3375,10.525 A0.5,0.5 0 0,0 224.8375,11.025 "/>
        <path d="M238.8375,11.025 A0.5,0.5 0 0,0 238.3375,10.525 "/>
        <path d="M224.8375,24.025 A0.5,0.5 0 0,0 225.3375,24.525 "/>
        <path d="M238.3375,24.525 A0.5,0.5 0 0,0 238.8375,24.025 "/>
        <line x1="249.15" y1="10.525" x2="262.15" y2="10.525"/>
        <line x1="249.15" y1="24.525" x2="262.15" y2="24.525"/>
        <line x1="248.65" y1="11.025" x2="248.65" y2="24.025"/>
        <line x1="262.65" y1="11.025" x2="262.65" y2="24.025"/>
        <path d="M249.15,10.525 A0.5,0.5 0 0,0 248.65,11.025 "/>
        <path d="M262.65,11.025 A0.5,0.5 0 0,0 262.15,10.525 "/>
        <path d="M248.65,24.025 A0.5,0.5 0 0,0 249.15,24.525 "/>
        <path d="M262.15,24.525 A0.5,0.5 0 0,0 262.65,24.025 "/>
        <line x1="277.725" y1="10.525" x2="290.725" y2="10.525"/>
        <line x1="277.725" y1="24.525" x2="290.725" y2="24.525"/>
        <line x1="277.225" y1="11.025" x2="277.225" y2="24.025"/>
        <line x1="291.225" y1="11.025" x2="291.225" y2="24.025"/>
        <path d="M277.725,10.525 A0.5,0.5 0 0,0 277.225,11.025 "/>
        <path d="M291.225,11.025 A0.5,0.5 0 0,0 290.725,10.525 "/>
        <path d="M277.225,24.025 A0.5,0.5 0 0,0 277.725,24.525 "/>
        <path d="M290.725,24.525 A0.5,0.5 0 0,0 291.225,24.025 "/>
        <line x1="11.025" y1="29.575" x2="24.025" y2="29.575"/>
        <line x1="11.025" y1="43.575" x2="24.025" y2="43.575"/>
        <line x1="10.525" y1="30.075" x2="10.525" y2="43.075"/>
        <line x1="24.525" y1="30.075" x2="24.525" y2="43.075"/>
        <path d="M11.025,29.575 A0.5,0.5 0 0,0 10.525,30.075 "/>
        <path d="M24.525,30.075 A0.5,0.5 0 0,0 24.025,29.575 "/>
        <path d="M10.525,43.075 A0.5,0.5 0 0,0 11.025,43.575 "/>
        <path d="M24.025,43.575 A0.5,0.5 0 0,0 24.525,43.075 "/>
        <line x1="37.21875" y1="29.575" x2="50.21875" y2="29.575"/>
        <line x1="37.21875" y1="43.575" x2="50.21875" y2="43.575"/>
        <line x1="36.71875" y1="30.075" x2="36.71875" y2="43.075"/>
        <line x1="50.71875" y1="30.075" x2="50.71875" y2="43.075"/>
        <path d="M37.21875,29.575 A0.5,0.5 0 0,0 36.71875,30.075 "/>
        <path d="M50.71875,30.075 A0.5,0.5 0 0,0 50.21875,29.575 "/>
        <path d="M36.71875,43.075 A0.5,0.5 0 0,0 37.21875,43.575 "/>
        <path d="M50.21875,43.575 A0.5,0.5 0 0,0 50.71875,43.075 "/>
        <line x1="58.65" y1="29.575" x2="71.65" y2="29.575"/>
        <line x1="58.65" y1="43.575" x2="71.65" y2="43.575"/>
        <line x1="58.15" y1="30.075" x2="58.15" y2="43.075"/>
        <line x1="72.15" y1="30.075" x2="72.15" y2="43.075"/>
        <path d="M58.65,29.575 A0.5,0.5 0 0,0 58.15,30.075 "/>
        <path d="M72.15,30.075 A0.5,0.5 0 0,0 71.65,29.575 "/>
        <path d="M58.15,43.075 A0.5,0.5 0 0,0 58.65,43.575 "/>
        <path d="M71.65,43.575 A0.5,0.5 0 0,0 72.15,43.075 "/>
        <line x1="77.7" y1="29.575" x2="90.7" y2="29.575"/>
        <line x1="77.7" y1="43.575" x2="90.7" y2="43.575"/>
        <line x1="77.2" y1="30.075" x2="77.2" y2="43.075"/>
        <line x1="91.2" y1="30.075" x2="91.2" y2="43.075"/>
        <path d="M77.7,29.575 A0.5,0.5 0 0,0 77.2,30.075 "/>
        <path d="M91.2,30.075 A0.5,0.5 0 0,0 90.7,29.575 "/>
        <path d="M77.2,43.075 A0.5,0.5 0 0,0 77.7,43.575 "/>
        <path d="M90.7,43.575 A0.5,0.5 0 0,0 91.2,43.075 "/>
        <line x1="96.75" y1="29.575" x2="109.75" y2="29.575"/>
        <line x1="96.75" y1="43.575" x2="109.75" y2="43.575"/>
        <line x1="96.25" y1="30.075" x2="96.25" y2="43.075"/>
        <line x1="110.25" y1="30.075" x2="110.25" y2="43.075"/>
        <path d="M96.75,29.575 A0.5,0.5 0 0,0 96.25,30.075 "/>
        <path d="M110.25,30.075 A0.5,0.5 0 0,0 109.75,29.575 "/>
        <path d="M96.25,43.075 A0.5,0.5 0 0,0 96.75,43.575 "/>
        <path d="M109.75,43.575 A0.5,0.5 0 0,0 110.25,43.075 "/>
        <line x1="115.8" y1="29.575" x2="128.8" y2="29.575"/>
        <line x1="115.8" y1="43.575" x2="128.8" y2="43.575"/>
        <line x1="115.3" y1="30.075" x2="115.3" y2="43.075"/>
        <line x1="129.3" y1="30.075" x2="129.3" y2="43.075"/>
        <path d="M115.8,29.575 A0.5,0.5 0 0,0 115.3,30.075 "/>
        <path d="M129.3,30.075 A0.5,0.5 0 0,0 128.8,29.575 "/>
        <path d="M115.3,43.075 A0.5,0.5 0 0,0 115.8,43.575 "/>
        <path d="M128.8,43.575 A0.5,0.5 0 0,0 129.3,43.075 "/>
        <line x1="134.85" y1="29.575" x2="147.85" y2="29.575"/>
        <line x1="134.85" y1="43.575" x2="147.85" y2="43.575"/>
        <line x1="134.35" y1="30.075" x2="134.35" y2="43.075"/>
        <line x1="148.35" y1="30.075" x2="148.35" y2="43.075"/>
        <path d="M134.85,29.575 A0.5,0.5 0 0,0 134.35,30.075 "/>
        <path d="M148.35,30.075 A0.5,0.5 0 0,0 147.85,29.575 "/>
        <path d="M134.35,43.075 A0.5,0.5 0 0,0 134.85,43.575 "/>
        <path d="M147.85,43.575 A0.5,0.5 0 0,0 148.35,43.075 "/>
        <line x1="153.9" y1="29.575" x2="166.9" y2="29.575"/>
        <line x1="153.9" y1="43.575" x2="166.9" y2="43.575"/>
        <line x1="153.4" y1="30.075" x2="153.4" y2="43.075"/>
        <line x1="167.4" y1="30.075" x2="167.4" y2="43.075"/>
        <path d="M153.9,29.575 A0.5,0.5 0 0,0 153.4,30.075 "/>
        <path d="M167.4,30.075 A0.5,0.5 0 0,0 166.9,29.575 "/>
        <path d="M153.4,43.075 A0.5,0.5 0 0,0 153.9,43.575 "/>
        <path d="M166.9,43.575 A0.5,0.5 0 0,0 167.4,43.075 "/>
        <line x1="172.95" y1="29.575" x2="185.95" y2="29.575"/>
        <line x1="172.95" y1="43.575" x2="185.95" y2="43.575"/>
        <line x1="172.45" y1="30.075" x2="172.45" y2="43.075"/>
        <line x1="186.45" y1="30.075" x2="186.45" y2="43.075"/>
        <path d="M172.95,29.575 A0.5,0.5 0 0,0 172.45,30.075 "/>
        <path d="M186.45,30.075 A0.5,0.5 0 0,0 185.95,29.575 "/>
        <path d="M172.45,43.075 A0.5,0.5 0 0,0 172.95,43.575 "/>
        <path d="M185.95,43.575 A0.5,0.5 0 0,0 186.45,43.075 "/>
        <line x1="192" y1="29.575" x2="205" y2="29.575"/>
        <line x1="192" y1="43.575" x2="205" y2="43.575"/>
        <line x1="191.5" y1="30.075" x2="191.5" y2="43.075"/>
        <line x1="205.5" y1="30.075" x2="205.5" y2="43.075"/>
        <path d="M192,29.575 A0.5,0.5 0 0,0 191.5,30.075 "/>
        <path d="M205.5,30.075 A0.5,0.5 0 0,0 205,29.575 "/>
        <path d="M191.5,43.075 A0.5,0.5 0 0,0 192,43.575 "/>
        <path d="M205,43.575 A0.5,0.5 0 0,0 205.5,43.075 "/>
        <line x1="211.05" y1="29.575" x2="224.05" y2="29.575"/>
        <line x1="211.05" y1="43.575" x2="224.05" y2="43.575"/>
        <line x1="210.55" y1="30.075" x2="210.55" y2="43.075"/>
        <line x1="224.55" y1="30.075" x2="224.55" y2="43.075"/>
        <path d="M211.05,29.575 A0.5,0.5 0 0,0 210.55,30.075 "/>
        <path d="M224.55,30.075 A0.5,0.5 0 0,0 224.05,29.575 "/>
        <path d="M210.55,43.075 A0.5,0.5 0 0,0 211.05,43.575 "/>
        <path d="M224.05,43.575 A0.5,0.5 0 0,0 224.55,43.075 "/>
        <line x1="230.1" y1="29.575" x2="243.1" y2="29.575"/>
        <line x1="230.1" y1="43.575" x2="243.1" y2="43.575"/>
        <line x1="229.6" y1="30.075" x2="229.6" y2="43.075"/>
        <line x1="243.6" y1="30.075" x2="243.6" y2="43.075"/>
        <path d="M230.1,29.575 A0.5,0.5 0 0,0 229.6,30.075 "/>
        <path d="M243.6,30.075 A0.5,0.5 0 0,0 243.1,29.575 "/>
        <path d="M229.6,43.075 A0.5,0.5 0 0,0 230.1,43.575 "/>
        <path d="M243.1,43.575 A0.5,0.5 0 0,0 243.6,43.075 "/>
        <line x1="251.53125" y1="29.575" x2="264.53125" y2="29.575"/>
        <line x1="251.53125" y1="43.575" x2="264.53125" y2="43.575"/>
        <line x1="251.03125" y1="30.075" x2="251.03125" y2="43.075"/>
        <line x1="265.03125" y1="30.075" x2="265.03125" y2="43.075"/>
        <path d="M251.53125,29.575 A0.5,0.5 0 0,0 251.03125,30.075 "/>
        <path d="M265.03125,30.075 A0.5,0.5 0 0,0 264.53125,29.575 "/>
        <path d="M251.03125,43.075 A0.5,0.5 0 0,0 251.53125,43.575 "/>
        <path d="M264.53125,43.575 A0.5,0.5 0 0,0 265.03125,43.075 "/>
        <line x1="277.725" y1="29.575" x2="290.725" y2="29.575"/>
        <line x1="277.725" y1="43.575" x2="290.725" y2="43.575"/>
        <line x1="277.225" y1="30.075" x2="277.225" y2="43.075"/>
        <line x1="291.225" y1="30.075" x2="291.225" y2="43.075"/>
        <path d="M277.725,29.575 A0.5,0.5 0 0,0 277.225,30.075 "/>
        <path d="M291.225,30.075 A0.5,0.5 0 0,0 290.725,29.575 "/>
        <path d="M277.225,43.075 A0.5,0.5 0 0,0 277.725,43.575 "/>
        <path d="M290.725,43.575 A0.5,0.5 0 0,0 291.225,43.075 "/>
        <line x1="11.025" y1="48.625" x2="24.025" y2="48.625"/>
        <line x1="11.025" y1="62.625" x2="24.025" y2="62.625"/>
        <line x1="10.525" y1="49.125" x2="10.525" y2="62.125"/>
        <line x1="24.525" y1="49.125" x2="24.525" y2="62.125"/>
        <path d="M11.025,48.625 A0.5,0.5 0 0,0 10.525,49.125 "/>
        <path d="M24.525,49.125 A0.5,0.5 0 0,0 24.025,48.625 "/>
        <path d="M24.025,62.625 A0.5,0.5 0 0,0 24.525,62.125 "/>
        <line x1="41.98125" y1="48.625" x2="54.98125" y2="48.625"/>
        <line x1="41.98125" y1="62.625" x2="54.98125" y2="62.625"/>
        <line x1="41.48125" y1="49.125" x2="41.48125" y2="62.125"/>
        <line x1="55.48125" y1="49.125" x2="55.48125" y2="62.125"/>
        <path d="M41.98125,48.625 A0.5,0.5 0 0,0 41.48125,49.125 "/>
        <path d="M55.48125,49.125 A0.5,0.5 0 0,0 54.98125,48.625 "/>
        <path d="M41.48125,62.125 A0.5,0.5 0 0,0 41.98125,62.625 "/>
        <path d="M54.98125,62.625 A0.5,0.5 0 0,0 55.48125,62.125 "/>
        <line x1="68.175" y1="48.625" x2="81.175" y2="48.625"/>
        <line x1="68.175" y1="62.625" x2="81.175" y2="62.625"/>
        <line x1="67.675" y1="49.125" x2="67.675" y2="62.125"/>
        <line x1="81.675" y1="49.125" x2="81.675" y2="62.125"/>
        <path d="M68.175,48.625 A0.5,0.5 0 0,0 67.675,49.125 "/>
        <path d="M81.675,49.125 A0.5,0.5 0 0,0 81.175,48.625 "/>
        <path d="M67.675,62.125 A0.5,0.5 0 0,0 68.175,62.625 "/>
        <path d="M81.175,62.625 A0.5,0.5 0 0,0 81.675,62.125 "/>
        <line x1="87.225" y1="48.625" x2="100.225" y2="48.625"/>
        <line x1="87.225" y1="62.625" x2="100.225" y2="62.625"/>
        <line x1="86.725" y1="49.125" x2="86.725" y2="62.125"/>
        <line x1="100.725" y1="49.125" x2="100.725" y2="62.125"/>
        <path d="M87.225,48.625 A0.5,0.5 0 0,0 86.725,49.125 "/>
        <path d="M100.725,49.125 A0.5,0.5 0 0,0 100.225,48.625 "/>
        <path d="M86.725,62.125 A0.5,0.5 0 0,0 87.225,62.625 "/>
        <path d="M100.225,62.625 A0.5,0.5 0 0,0 100.725,62.125 "/>
        <line x1="106.275" y1="48.625" x2="119.275" y2="48.625"/>
        <line x1="106.275" y1="62.625" x2="119.275" y2="62.625"/>
        <line x1="105.775" y1="49.125" x2="105.775" y2="62.125"/>
        <line x1="119.775" y1="49.125" x2="119.775" y2="62.125"/>
        <path d="M106.275,48.625 A0.5,0.5 0 0,0 105.775,49.125 "/>
        <path d="M119.775,49.125 A0.5,0.5 0 0,0 119.275,48.625 "/>
        <path d="M105.775,62.125 A0.5,0.5 0 0,0 106.275,62.625 "/>
        <path d="M119.275,62.625 A0.5,0.5 0 0,0 119.775,62.125 "/>
        <line x1="125.325" y1="48.625" x2="138.325" y2="48.625"/>
        <line x1="125.325" y1="62.625" x2="138.325" y2="62.625"/>
        <line x1="124.825" y1="49.125" x2="124.825" y2="62.125"/>
        <line x1="138.825" y1="49.125" x2="138.825" y2="62.125"/>
        <path d="M125.325,48.625 A0.5,0.5 0 0,0 124.825,49.125 "/>
        <path d="M138.825,49.125 A0.5,0.5 0 0,0 138.325,48.625 "/>
        <path d="M124.825,62.125 A0.5,0.5 0 0,0 125.325,62.625 "/>
        <path d="M138.325,62.625 A0.5,0.5 0 0,0 138.825,62.125 "/>
        <line x1="144.375" y1="48.625" x2="157.375" y2="48.625"/>
        <line x1="144.375" y1="62.625" x2="157.375" y2="62.625"/>
        <line x1="143.875" y1="49.125" x2="143.875" y2="62.125"/>
        <line x1="157.875" y1="49.125" x2="157.875" y2="62.125"/>
        <path d="M144.375,48.625 A0.5,0.5 0 0,0 143.875,49.125 "/>
        <path d="M157.875,49.125 A0.5,0.5 0 0,0 157.375,48.625 "/>
        <path d="M143.875,62.125 A0.5,0.5 0 0,0 144.375,62.625 "/>
        <path d="M157.375,62.625 A0.5,0.5 0 0,0 157.875,62.125 "/>
        <line x1="163.425" y1="48.625" x2="176.425" y2="48.625"/>
        <line x1="163.425" y1="62.625" x2="176.425" y2="62.625"/>
        <line x1="162.925" y1="49.125" x2="162.925" y2="62.125"/>
        <line x1="176.925" y1="49.125" x2="176.925" y2="62.125"/>
        <path d="M163.425,48.625 A0.5,0.5 0 0,0 162.925,49.125 "/>
        <path d="M176.925,49.125 A0.5,0.5 0 0,0 176.425,48.625 "/>
        <path d="M162.925,62.125 A0.5,0.5 0 0,0 163.425,62.625 "/>
        <path d="M176.425,62.625 A0.5,0.5 0 0,0 176.925,62.125 "/>
        <line x1="182.475" y1="48.625" x2="195.475" y2="48.625"/>
        <line x1="182.475" y1="62.625" x2="195.475" y2="62.625"/>
        <line x1="181.975" y1="49.125" x2="181.975" y2="62.125"/>
        <line x1="195.975" y1="49.125" x2="195.975" y2="62.125"/>
        <path d="M182.475,48.625 A0.5,0.5 0 0,0 181.975,49.125 "/>
        <path d="M195.975,49.125 A0.5,0.5 0 0,0 195.475,48.625 "/>
        <path d="M181.975,62.125 A0.5,0.5 0 0,0 182.475,62.625 "/>
        <path d="M195.475,62.625 A0.5,0.5 0 0,0 195.975,62.125 "/>
        <line x1="201.525" y1="48.625" x2="214.525" y2="48.625"/>
        <line x1="201.525" y1="62.625" x2="214.525" y2="62.625"/>
        <line x1="201.025" y1="49.125" x2="201.025" y2="62.125"/>
        <line x1="215.025" y1="49.125" x2="215.025" y2="62.125"/>
        <path d="M201.525,48.625 A0.5,0.5 0 0,0 201.025,49.125 "/>
        <path d="M215.025,49.125 A0.5,0.5 0 0,0 214.525,48.625 "/>
        <path d="M201.025,62.125 A0.5,0.5 0 0,0 201.525,62.625 "/>
        <path d="M214.525,62.625 A0.5,0.5 0 0,0 215.025,62.125 "/>
        <line x1="220.575" y1="48.625" x2="233.575" y2="48.625"/>
        <line x1="220.575" y1="62.625" x2="233.575" y2="62.625"/>
        <line x1="220.075" y1="49.125" x2="220.075" y2="62.125"/>
        <line x1="234.075" y1="49.125" x2="234.075" y2="62.125"/>
        <path d="M220.575,48.625 A0.5,0.5 0 0,0 220.075,49.125 "/>
        <path d="M234.075,49.125 A0.5,0.5 0 0,0 233.575,48.625 "/>
        <path d="M220.075,62.125 A0.5,0.5 0 0,0 220.575,62.625 "/>
        <path d="M233.575,62.625 A0.5,0.5 0 0,0 234.075,62.125 "/>
        <line x1="246.76875" y1="48.625" x2="259.76875" y2="48.625"/>
        <line x1="246.76875" y1="62.625" x2="259.76875" y2="62.625"/>
        <line x1="246.26875" y1="49.125" x2="246.26875" y2="62.125"/>
        <line x1="260.26875" y1="49.125" x2="260.26875" y2="62.125"/>
        <path d="M246.76875,48.625 A0.5,0.5 0 0,0 246.26875,49.125 "/>
        <path d="M260.26875,49.125 A0.5,0.5 0 0,0 259.76875,48.625 "/>
        <path d="M246.26875,62.125 A0.5,0.5 0 0,0 246.76875,62.625 "/>
        <path d="M259.76875,62.625 A0.5,0.5 0 0,0 260.26875,62.125 "/>
        <line x1="277.725" y1="48.625" x2="290.725" y2="48.625"/>
        <line x1="277.725" y1="62.625" x2="290.725" y2="62.625"/>
        <line x1="277.225" y1="49.125" x2="277.225" y2="62.125"/>
        <line x1="291.225" y1="49.125" x2="291.225" y2="62.125"/>
        <path d="M277.725,48.625 A0.5,0.5 0 0,0 277.225,49.125 "/>
        <path d="M291.225,49.125 A0.5,0.5 0 0,0 290.725,48.625 "/>
        <path d="M277.225,62.125 A0.5,0.5 0 0,0 277.725,62.625 "/>
        <path d="M290.725,62.625 A0.5,0.5 0 0,0 291.225,62.125 "/>
        <line x1="49.125" y1="67.675" x2="62.125" y2="67.675"/>
        <line x1="49.125" y1="81.675" x2="62.125" y2="81.675"/>
        <line x1="48.625" y1="68.175" x2="48.625" y2="81.175"/>
        <line x1="62.625" y1="68.175" x2="62.625" y2="81.175"/>
        <path d="M49.125,67.675 A0.5,0.5 0 0,0 48.625,68.175 "/>
        <path d="M62.625,68.175 A0.5,0.5 0 0,0 62.125,67.675 "/>
        <path d="M48.625,81.175 A0.5,0.5 0 0,0 49.125,81.675 "/>
        <path d="M62.125,81.675 A0.5,0.5 0 0,0 62.625,81.175 "/>
        <line x1="68.175" y1="67.675" x2="81.175" y2="67.675"/>
        <line x1="68.175" y1="81.675" x2="81.175" y2="81.675"/>
        <line x1="67.675" y1="68.175" x2="67.675" y2="81.175"/>
        <line x1="81.675" y1="68.175" x2="81.675" y2="81.175"/>
        <path d="M68.175,67.675 A0.5,0.5 0 0,0 67.675,68.175 "/>
        <path d="M81.675,68.175 A0.5,0.5 0 0,0 81.175,67.675 "/>
        <path d="M67.675,81.175 A0.5,0.5 0 0,0 68.175,81.675 "/>
        <path d="M81.175,81.675 A0.5,0.5 0 0,0 81.675,81.175 "/>
        <line x1="87.225" y1="67.675" x2="100.225" y2="67.675"/>
        <line x1="87.225" y1="81.675" x2="100.225" y2="81.675"/>
        <line x1="86.725" y1="68.175" x2="86.725" y2="81.175"/>
        <line x1="100.725" y1="68.175" x2="100.725" y2="81.175"/>
        <path d="M87.225,67.675 A0.5,0.5 0 0,0 86.725,68.175 "/>
        <path d="M100.725,68.175 A0.5,0.5 0 0,0 100.225,67.675 "/>
        <path d="M86.725,81.175 A0.5,0.5 0 0,0 87.225,81.675 "/>
        <path d="M100.225,81.675 A0.5,0.5 0 0,0 100.725,81.175 "/>
        <line x1="118.18125" y1="67.675" x2="131.18125" y2="67.675"/>
        <line x1="118.18125" y1="81.675" x2="131.18125" y2="81.675"/>
        <line x1="117.68125" y1="68.175" x2="117.68125" y2="81.175"/>
        <line x1="131.68125" y1="68.175" x2="131.68125" y2="81.175"/>
        <path d="M118.18125,67.675 A0.5,0.5 0 0,0 117.68125,68.175 "/>
        <path d="M131.68125,68.175 A0.5,0.5 0 0,0 131.18125,67.675 "/>
        <path d="M117.68125,81.175 A0.5,0.5 0 0,0 118.18125,81.675 "/>
        <path d="M131.18125,81.675 A0.5,0.5 0 0,0 131.68125,81.175 "/>
        <line x1="109.74325" y1="68.675" x2="115.74325" y2="68.675"/>
        <line x1="109.74325" y1="83.675" x2="115.74325" y2="83.675"/>
        <line x1="109.24325" y1="69.175" x2="109.24325" y2="83.175"/>
        <line x1="116.24325" y1="69.175" x2="116.24325" y2="83.175"/>
        <path d="M109.74325,68.675 A0.5,0.5 0 0,0 109.24325,69.175 "/>
        <path d="M116.24325,69.175 A0.5,0.5 0 0,0 115.74325,68.675 "/>
        <path d="M109.24325,83.175 A0.5,0.5 0 0,0 109.74325,83.675 "/>
        <path d="M115.74325,83.675 A0.5,0.5 0 0,0 116.24325,83.175 "/>
        <line x1="133.61925" y1="68.675" x2="139.61925" y2="68.675"/>
        <line x1="133.61925" y1="83.675" x2="139.61925" y2="83.675"/>
        <line x1="133.11925" y1="69.175" x2="133.11925" y2="83.175"/>
        <line x1="140.11925" y1="69.175" x2="140.11925" y2="83.175"/>
        <path d="M133.61925,68.675 A0.5,0.5 0 0,0 133.11925,69.175 "/>
        <path d="M140.11925,69.175 A0.5,0.5 0 0,0 139.61925,68.675 "/>
        <path d="M133.11925,83.175 A0.5,0.5 0 0,0 133.61925,83.675 "/>
        <path d="M139.61925,83.675 A0.5,0.5 0 0,0 140.11925,83.175 "/>
        <line x1="165.80625" y1="67.675" x2="178.80625" y2="67.675"/>
        <line x1="165.80625" y1="81.675" x2="178.80625" y2="81.675"/>
        <line x1="165.30625" y1="68.175" x2="165.30625" y2="81.175"/>
        <line x1="179.30625" y1="68.175" x2="179.30625" y2="81.175"/>
        <path d="M165.80625,67.675 A0.5,0.5 0 0,0 165.30625,68.175 "/>
        <path d="M179.30625,68.175 A0.5,0.5 0 0,0 178.80625,67.675 "/>
        <path d="M165.30625,81.175 A0.5,0.5 0 0,0 165.80625,81.675 "/>
        <path d="M178.80625,81.675 A0.5,0.5 0 0,0 179.30625,81.175 "/>
        <line x1="157.36825" y1="68.675" x2="163.36825" y2="68.675"/>
        <line x1="157.36825" y1="83.675" x2="163.36825" y2="83.675"/>
        <line x1="156.86825" y1="69.175" x2="156.86825" y2="83.175"/>
        <line x1="163.86825" y1="69.175" x2="163.86825" y2="83.175"/>
        <path d="M157.36825,68.675 A0.5,0.5 0 0,0 156.86825,69.175 "/>
        <path d="M163.86825,69.175 A0.5,0.5 0 0,0 163.36825,68.675 "/>
        <path d="M156.86825,83.175 A0.5,0.5 0 0,0 157.36825,83.675 "/>
        <path d="M163.36825,83.675 A0.5,0.5 0 0,0 163.86825,83.175 "/>
        <line x1="181.24425" y1="68.675" x2="187.24425" y2="68.675"/>
        <line x1="181.24425" y1="83.675" x2="187.24425" y2="83.675"/>
        <line x1="180.74425" y1="69.175" x2="180.74425" y2="83.175"/>
        <line x1="187.74425" y1="69.175" x2="187.74425" y2="83.175"/>
        <path d="M181.24425,68.675 A0.5,0.5 0 0,0 180.74425,69.175 "/>
        <path d="M187.74425,69.175 A0.5,0.5 0 0,0 187.24425,68.675 "/>
        <path d="M180.74425,83.175 A0.5,0.5 0 0,0 181.24425,83.675 "/>
        <path d="M187.24425,83.675 A0.5,0.5 0 0,0 187.74425,83.175 "/>
        <line x1="201.525" y1="67.675" x2="214.525" y2="67.675"/>
        <line x1="201.525" y1="81.675" x2="214.525" y2="81.675"/>
        <line x1="201.025" y1="68.175" x2="201.025" y2="81.175"/>
        <line x1="215.025" y1="68.175" x2="215.025" y2="81.175"/>
        <path d="M201.525,67.675 A0.5,0.5 0 0,0 201.025,68.175 "/>
        <path d="M215.025,68.175 A0.5,0.5 0 0,0 214.525,67.675 "/>
        <path d="M201.025,81.175 A0.5,0.5 0 0,0 201.525,81.675 "/>
        <path d="M214.525,81.675 A0.5,0.5 0 0,0 215.025,81.175 "/>
        <line x1="220.575" y1="67.675" x2="233.575" y2="67.675"/>
        <line x1="220.575" y1="81.675" x2="233.575" y2="81.675"/>
        <line x1="220.075" y1="68.175" x2="220.075" y2="81.175"/>
        <line x1="234.075" y1="68.175" x2="234.075" y2="81.175"/>
        <path d="M220.575,67.675 A0.5,0.5 0 0,0 220.075,68.175 "/>
        <path d="M234.075,68.175 A0.5,0.5 0 0,0 233.575,67.675 "/>
        <path d="M220.075,81.175 A0.5,0.5 0 0,0 220.575,81.675 "/>
        <path d="M233.575,81.675 A0.5,0.5 0 0,0 234.075,81.175 "/>
        <line x1="239.625" y1="67.675" x2="252.625" y2="67.675"/>
        <line x1="239.625" y1="81.675" x2="252.625" y2="81.675"/>
        <line x1="239.125" y1="68.175" x2="239.125" y2="81.175"/>
        <line x1="253.125" y1="68.175" x2="253.125" y2="81.175"/>
        <path d="M239.625,67.675 A0.5,0.5 0 0,0 239.125,68.175 "/>
        <path d="M253.125,68.175 A0.5,0.5 0 0,0 252.625,67.675 "/>
        <path d="M239.125,81.175 A0.5,0.5 0 0,0 239.625,81.675 "/>
        <path d="M252.625,81.675 A0.5,0.5 0 0,0 253.125,81.175 "/>
        <path d="M10.525,62.125 A0.5,0.5 0 0,0 11.025,62.625 "/>
        <path d="M8,68 C28.27,66.4 38,85 38,85 "/>
        <path d="M293.75,68 C273.48231099,66.41448576 263.752,85 263.752,85 "/>
        <line x1="0" y1="25.5" x2="0" y2="50.5"/>
        <line x1="6" y1="25.5" x2="6" y2="35.5"/>
        <line x1="6" y1="40.5" x2="6" y2="50.5"/>
        <path d="M6,35.5 A1.45,1.45 0 0,0 8,35.5 "/>
        <path d="M6,40.5 A1.45,1.45 0 0,1 8,40.5 "/>
        <path d="M6,25.5 A3,3 0 0,0 0,25.5 "/>
        <path d="M6,50.5 A3,3 0 1,1 0,50.5 "/>
        <circle cx="3" cy="38" r="1.25"/>
        <line x1="8" y1="40.5" x2="8" y2="68"/>
        <line x1="8" y1="35.5" x2="8" y2="8"/>
        <line x1="301.75" y1="25.5" x2="301.75" y2="50.5"/>
        <line x1="295.75" y1="25.5" x2="295.75" y2="35.5"/>
        <line x1="295.75" y1="40.5" x2="295.75" y2="50.5"/>
        <path d="M295.75,35.5 A1.45,1.45 0 0,1 293.75,35.5 "/>
        <path d="M295.75,40.5 A1.45,1.45 0 0,0 293.75,40.5 "/>
        <path d="M295.75,25.5 A3,3 0 1,1 301.75,25.5 "/>
        <path d="M295.75,50.5 A3,3 0 0,0 301.75,50.5 "/>
        <circle cx="298.75" cy="38" r="1.25"/>
        <line x1="293.75" y1="40.5" x2="293.75" y2="68"/>
        <line x1="293.75" y1="35.5" x2="293.75" y2="8"/>
        <line x1="63" y1="93" x2="88" y2="93"/>
        <line x1="63" y1="87" x2="73" y2="87"/>
        <line x1="78" y1="87" x2="88" y2="87"/>
        <path d="M73,87 A1.45,1.45 0 0,0 73,85 "/>
        <path d="M78,87 A1.45,1.45 0 0,1 78,85 "/>
        <path d="M63,87 A3,3 0 0,0 63,93 "/>
        <path d="M88,87 A3,3 0 1,1 88,93 "/>
        <circle cx="75.5" cy="90" r="1.25"/>
        <line x1="38" y1="85" x2="73" y2="85"/>
        <line x1="263.752" y1="85" x2="228.752" y2="85"/>
        <line x1="213.752" y1="93" x2="238.752" y2="93"/>
        <line x1="213.752" y1="87" x2="223.752" y2="87"/>
        <line x1="228.752" y1="87" x2="238.752" y2="87"/>
        <path d="M223.752,87 A1.45,1.45 0 0,0 223.752,85 "/>
        <path d="M228.752,87 A1.45,1.45 0 0,1 228.752,85 "/>
        <path d="M213.752,87 A3,3 0 0,0 213.752,93 "/>
        <path d="M238.752,87 A3,3 0 1,1 238.752,93 "/>
        <circle cx="226.252" cy="90" r="1.25"/>
        <line x1="138.376" y1="0" x2="163.376" y2="0"/>
        <line x1="138.376" y1="6" x2="148.376" y2="6"/>
        <line x1="153.376" y1="6" x2="163.376" y2="6"/>
        <path d="M148.376,6 A1.45,1.45 0 0,1 148.376,8 "/>
        <path d="M153.376,6 A1.45,1.45 0 0,0 153.376,8 "/>
        <path d="M138.376,6 A3,3 0 1,1 138.376,0 "/>
        <path d="M163.376,6 A3,3 0 0,0 163.376,0 "/>
        <circle cx="150.876" cy="3" r="1.25"/>
        <line x1="78" y1="85" x2="223.752" y2="85"/>
        <line x1="43.125" y1="0" x2="68.125" y2="0"/>
        <line x1="43.125" y1="6" x2="53.125" y2="6"/>
        <line x1="58.125" y1="6" x2="68.125" y2="6"/>
        <path d="M53.125,6 A1.45,1.45 0 0,1 53.125,8 "/>
        <path d="M58.125,6 A1.45,1.45 0 0,0 58.125,8 "/>
        <path d="M43.125,6 A3,3 0 1,1 43.125,0 "/>
        <path d="M68.125,6 A3,3 0 0,0 68.125,0 "/>
        <circle cx="55.625" cy="3" r="1.25"/>
        <line x1="228.627" y1="0" x2="253.627" y2="0"/>
        <line x1="228.627" y1="6" x2="238.627" y2="6"/>
        <line x1="243.627" y1="6" x2="253.627" y2="6"/>
        <path d="M238.627,6 A1.45,1.45 0 0,1 238.627,8 "/>
        <path d="M243.627,6 A1.45,1.45 0 0,0 243.627,8 "/>
        <path d="M228.627,6 A3,3 0 1,1 228.627,0 "/>
        <path d="M253.627,6 A3,3 0 0,0 253.627,0 "/>
        <circle cx="241.127" cy="3" r="1.25"/>
        <line x1="293.75" y1="8" x2="243.627" y2="8"/>
        <line x1="238.627" y1="8" x2="153.376" y2="8"/>
        <line x1="58.125" y1="8" x2="148.376" y2="8"/>
        <line x1="8" y1="8" x2="53.125" y2="8"/>
    </g>
</svg>
